M48
; DRILL file {KiCad 9.0.7} date 2026-03-01T15:46:20+0900
; FORMAT={-:-/ absolute / metric / decimal}
; #@! TF.CreationDate,2026-03-01T15:46:20+09:00
; #@! TF.GenerationSoftware,Kicad,Pcbnew,9.0.7
; #@! TF.FileFunction,MixedPlating,1,2
FMAT,2
METRIC
; #@! TA.AperFunction,Plated,PTH,ViaDrill
T1C0.300
; #@! TA.AperFunction,Plated,PTH,ComponentDrill
T2C0.700
; #@! TA.AperFunction,Plated,PTH,ComponentDrill
T3C0.800
; #@! TA.AperFunction,Plated,PTH,ComponentDrill
T4C0.900
; #@! TA.AperFunction,Plated,PTH,ComponentDrill
T5C1.000
; #@! TA.AperFunction,Plated,PTH,ComponentDrill
T6C1.090
; #@! TA.AperFunction,Plated,PTH,ComponentDrill
T7C1.100
; #@! TA.AperFunction,Plated,PTH,ComponentDrill
T8C1.200
; #@! TA.AperFunction,Plated,PTH,ComponentDrill
T9C1.300
; #@! TA.AperFunction,NonPlated,NPTH,ComponentDrill
T10C3.200
%
G90
G05
T1
X51.524Y-131.814
X51.854Y-138.392
X51.88Y-125.921
X51.968Y-140.31
X52.019Y-57.506
X52.324Y-55.042
X52.349Y-144.983
X53.848Y-138.43
X53.848Y-140.31
X54.966Y-52.324
X54.966Y-57.76
X54.966Y-147.625
X55.042Y-142.342
X56.236Y-90.576
X56.388Y-78.88
X56.49Y-131.216
X56.516Y-115.918
X56.604Y-123.711
X57.366Y-120.739
X57.658Y-145.034
X57.709Y-55.042
X58.128Y-86.36
X58.318Y-120.701
X58.572Y-126.797
X58.623Y-123.698
X58.698Y-59.792
X59.322Y-94.806
X59.418Y-79.565
X59.487Y-57.15
X59.487Y-55.423
X59.741Y-64.922
X60.3Y-131.166
X60.452Y-77.826
X60.594Y-110.45
X60.604Y-137.427
X60.617Y-141.758
X60.617Y-146.622
X60.655Y-51.829
X60.915Y-92.973
X61.849Y-132.258
X63.449Y-52.68
X63.703Y-86.919
X63.83Y-107.493
X63.906Y-66.599
X63.906Y-74.574
X64.11Y-106.68
X64.148Y-137.427
X64.757Y-103.34
X65.075Y-66.599
X65.138Y-121.45
X65.189Y-124.27
X65.494Y-55.614
X65.938Y-64.973
X65.939Y-112.319
X66.637Y-112.306
X66.7Y-99.416
X66.713Y-78.27
X66.764Y-100.749
X67.247Y-103.34
X67.43Y-80.874
X67.45Y-101.715
X67.475Y-70.117
X67.938Y-83.464
X68.263Y-111.392
X68.339Y-55.614
X68.364Y-71.006
X68.428Y-88.595
X68.428Y-124.257
X68.872Y-66.866
X69.697Y-139.387
X69.725Y-142.47
X69.736Y-81.268
X70.053Y-112.814
X70.295Y-146.571
X70.32Y-144.59
X70.523Y-131.128
X70.764Y-99.212
X70.764Y-124.257
X71.488Y-108.344
X71.526Y-99.974
X71.996Y-106.21
X72.276Y-74.435
X72.644Y-118.11
X72.695Y-117.196
X72.809Y-72.225
X73.114Y-66.053
X73.165Y-108.395
X73.266Y-106.274
X73.375Y-116.586
X73.411Y-69.044
X73.609Y-58.014
X73.749Y-61.764
X73.749Y-64.402
X74.511Y-59.322
X74.689Y-113.627
X74.74Y-112.814
X75.997Y-106.274
X76.111Y-101.232
X76.721Y-133.617
X77.114Y-146.634
X77.28Y-124.219
X78.969Y-100.813
X79.058Y-108.395
X79.146Y-74.422
X79.388Y-64.351
X79.388Y-65.621
X79.413Y-68.542
X79.464Y-59.322
X79.464Y-61.764
X79.896Y-70.879
X80.454Y-101.206
X81.077Y-86.512
X81.128Y-96.469
X81.75Y-71.59
X81.94Y-52.324
X84.036Y-93.358
X84.493Y-124.244
X86.218Y-58.725
X86.449Y-85.992
X87.122Y-119.38
X87.173Y-96.0
X87.732Y-129.184
X87.744Y-139.764
X87.77Y-125.641
X87.795Y-136.589
X88.036Y-110.134
X88.544Y-117.043
X88.748Y-107.899
X88.798Y-96.0
X89.021Y-61.608
X89.218Y-57.646
X89.243Y-83.594
X89.776Y-72.479
X89.878Y-81.054
X90.379Y-65.164
X90.424Y-56.093
X91.084Y-125.12
X91.377Y-68.872
X92.1Y-109.97
X92.4Y-80.082
X92.71Y-56.286
X93.167Y-142.291
X93.269Y-145.796
X93.421Y-96.012
X93.929Y-52.324
X94.285Y-56.286
X96.012Y-95.453
X96.012Y-96.152
X96.863Y-110.63
X97.307Y-109.093
X97.536Y-111.506
X97.841Y-145.694
X98.088Y-112.268
X98.45Y-128.88
X98.616Y-121.222
X100.272Y-128.918
X101.435Y-65.926
X101.435Y-68.339
X101.803Y-56.782
X102.07Y-59.703
X102.07Y-63.64
X102.07Y-69.126
X102.832Y-60.592
X103.086Y-139.717
X103.518Y-62.98
X104.204Y-119.368
X104.229Y-62.141
X104.712Y-91.326
X105.169Y-86.398
X105.245Y-81.826
X105.245Y-84.722
X106.604Y-95.377
X106.731Y-56.772
X108.471Y-103.061
X109.309Y-97.828
X110.795Y-56.772
X111.186Y-101.29
X111.309Y-102.074
X112.629Y-130.978
X112.7Y-79.908
X112.796Y-133.17
X113.024Y-110.75
X113.182Y-121.505
X114.592Y-101.029
X114.592Y-104.102
X114.605Y-97.892
X117.208Y-93.828
X117.297Y-98.857
X119.24Y-113.645
X121.158Y-56.909
X121.209Y-90.576
X124.917Y-95.706
X124.943Y-128.93
X125.311Y-111.658
X125.311Y-123.076
X125.374Y-99.416
X125.397Y-101.095
X125.425Y-98.146
X125.679Y-56.909
X125.946Y-122.314
X125.984Y-110.693
X126.035Y-91.389
X126.695Y-135.687
X126.708Y-120.155
X126.708Y-130.188
X126.733Y-76.086
X126.733Y-78.042
X126.733Y-79.959
X126.746Y-86.462
X126.746Y-119.075
X126.759Y-74.13
X127.343Y-64.719
X127.851Y-56.909
X127.914Y-108.763
X127.934Y-68.529
X128.372Y-109.982
X128.575Y-122.606
X128.575Y-125.222
X128.613Y-67.259
X128.93Y-120.04
X129.21Y-134.595
X129.21Y-135.687
X129.362Y-137.821
X129.489Y-107.442
X129.502Y-69.533
X129.623Y-117.635
X129.883Y-99.53
X130.137Y-70.334
X130.302Y-115.164
X130.302Y-134.772
X130.391Y-52.337
X131.28Y-90.881
X131.28Y-93.421
X131.28Y-103.022
X131.28Y-104.661
X131.318Y-56.909
X131.42Y-131.826
X132.41Y-129.286
X132.699Y-133.655
X133.096Y-128.27
X133.375Y-127.356
X133.96Y-95.148
X134.29Y-98.323
X134.468Y-130.09
X134.849Y-97.46
X135.915Y-61.544
X136.449Y-98.501
X136.538Y-73.495
X136.55Y-53.137
X136.563Y-64.326
X136.601Y-57.81
X136.607Y-84.379
X136.741Y-71.768
X137.554Y-101.791
X137.566Y-128.88
X137.63Y-65.926
X137.668Y-67.208
X137.668Y-117.45
X137.719Y-127.184
X137.871Y-53.137
X137.871Y-57.81
X137.871Y-135.23
X138.739Y-60.314
X138.951Y-115.735
X139.103Y-125.133
X139.256Y-134.633
X139.751Y-80.67
X139.764Y-128.156
X139.878Y-67.208
X140.066Y-90.78
X142.291Y-145.009
X142.316Y-55.016
X142.469Y-115.722
X143.18Y-120.975
X143.516Y-113.563
X143.612Y-114.579
X145.009Y-52.375
X145.034Y-57.658
X145.034Y-142.316
X145.059Y-147.752
X145.923Y-92.507
X146.075Y-80.62
X146.075Y-85.725
X146.228Y-89.764
X146.647Y-115.71
X146.987Y-107.467
X146.99Y-94.818
X147.066Y-68.072
X147.066Y-70.46
X147.117Y-62.789
X147.168Y-109.779
X147.65Y-55.042
X147.726Y-144.983
X147.828Y-80.823
X147.93Y-130.785
X147.93Y-139.09
X148.184Y-112.979
T2
X52.134Y-106.16
X52.134Y-113.78
X52.134Y-116.066
X52.134Y-123.686
X52.489Y-91.783
X52.489Y-99.403
X58.331Y-97.93
X58.331Y-105.55
X59.068Y-66.586
X59.068Y-74.206
X69.126Y-125.895
X69.126Y-133.515
X71.819Y-125.895
X71.819Y-133.515
X74.359Y-136.614
X81.064Y-73.267
X81.064Y-80.887
X81.979Y-136.614
X98.641Y-124.194
X105.905Y-132.779
X105.905Y-140.399
X106.261Y-124.194
X132.423Y-146.088
X139.535Y-119.52
X140.043Y-146.088
X147.155Y-119.52
T3
X52.337Y-127.668
X52.337Y-130.168
X54.294Y-134.633
X54.943Y-110.996
X54.943Y-113.536
X54.943Y-116.076
X54.943Y-118.616
X54.943Y-121.156
X54.943Y-123.696
X54.943Y-126.236
X54.943Y-128.776
X55.602Y-93.968
X56.198Y-61.608
X56.426Y-71.077
X56.426Y-73.577
X56.599Y-108.141
X58.102Y-93.968
X58.128Y-76.36
X58.128Y-78.86
X58.698Y-61.608
X59.099Y-108.141
X59.174Y-134.633
X62.065Y-55.512
X62.065Y-58.052
X62.065Y-60.592
X62.065Y-63.132
X62.065Y-65.672
X62.065Y-68.212
X62.065Y-70.752
X62.065Y-73.292
X62.065Y-75.832
X62.065Y-78.372
X62.065Y-80.912
X62.065Y-83.452
X62.065Y-85.992
X62.065Y-88.532
X62.065Y-91.072
X62.065Y-93.612
X62.065Y-96.152
X62.065Y-98.692
X62.065Y-101.232
X62.065Y-103.772
X62.563Y-110.996
X62.563Y-113.536
X62.563Y-116.076
X62.563Y-118.616
X62.563Y-121.156
X62.563Y-123.696
X62.563Y-126.236
X62.563Y-128.776
X64.16Y-131.47
X64.16Y-133.97
X65.786Y-141.368
X65.786Y-144.868
X70.652Y-52.68
X73.152Y-52.68
X74.349Y-126.012
X74.349Y-128.552
X74.349Y-131.092
X74.349Y-133.632
X77.305Y-55.512
X77.305Y-58.052
X77.305Y-60.592
X77.305Y-63.132
X77.305Y-65.672
X77.305Y-68.212
X77.305Y-70.752
X77.305Y-73.292
X77.305Y-75.832
X77.305Y-78.372
X77.305Y-80.912
X77.305Y-83.452
X77.305Y-85.992
X77.305Y-88.532
X77.305Y-91.072
X77.305Y-93.612
X77.305Y-96.152
X77.305Y-98.692
X77.305Y-101.232
X77.305Y-103.772
X81.969Y-126.012
X81.969Y-128.552
X81.969Y-131.092
X81.969Y-133.632
X82.766Y-97.688
X82.766Y-100.228
X82.766Y-102.768
X82.766Y-105.308
X82.766Y-107.848
X82.766Y-110.388
X82.766Y-112.928
X82.766Y-115.468
X82.766Y-118.008
X82.766Y-120.548
X84.168Y-55.654
X84.168Y-58.194
X84.168Y-60.734
X84.168Y-63.274
X84.168Y-65.814
X84.168Y-68.354
X84.168Y-70.894
X84.168Y-73.434
X84.168Y-75.974
X84.168Y-78.514
X84.168Y-81.054
X84.168Y-83.594
X84.168Y-86.134
X84.168Y-88.674
X85.077Y-126.931
X85.077Y-129.431
X90.386Y-97.688
X90.386Y-100.228
X90.386Y-102.768
X90.386Y-105.308
X90.386Y-107.848
X90.386Y-110.388
X90.386Y-112.928
X90.386Y-115.468
X90.386Y-118.008
X90.386Y-120.548
X91.129Y-127.648
X94.45Y-97.688
X94.45Y-100.228
X94.45Y-102.768
X94.45Y-105.308
X94.45Y-107.848
X94.45Y-110.388
X94.45Y-112.928
X94.45Y-115.468
X94.45Y-118.008
X94.45Y-120.548
X94.629Y-127.648
X98.255Y-126.911
X99.408Y-55.654
X99.408Y-58.194
X99.408Y-60.734
X99.408Y-63.274
X99.408Y-65.814
X99.408Y-68.354
X99.408Y-70.894
X99.408Y-73.434
X99.408Y-75.974
X99.408Y-78.514
X99.408Y-81.054
X99.408Y-83.594
X99.408Y-86.134
X99.408Y-88.674
X100.755Y-126.911
X102.07Y-97.688
X102.07Y-100.228
X102.07Y-102.768
X102.07Y-105.308
X102.07Y-107.848
X102.07Y-110.388
X102.07Y-112.928
X102.07Y-115.468
X102.07Y-118.008
X102.07Y-120.548
X102.618Y-54.623
X105.118Y-54.623
X107.337Y-59.639
X107.337Y-62.179
X107.337Y-64.719
X107.337Y-67.259
X107.337Y-69.799
X107.337Y-72.339
X107.337Y-74.879
X107.337Y-77.419
X107.337Y-79.959
X107.337Y-82.499
X107.337Y-85.039
X107.337Y-87.579
X107.337Y-90.119
X107.337Y-92.659
X108.547Y-136.919
X109.309Y-105.042
X109.309Y-107.582
X109.309Y-110.122
X109.309Y-112.662
X109.309Y-115.202
X109.309Y-117.742
X109.309Y-120.282
X109.309Y-122.822
X109.309Y-125.362
X109.309Y-127.902
X109.309Y-130.442
X109.309Y-132.982
X110.936Y-54.61
X111.047Y-136.919
X113.436Y-54.61
X114.957Y-59.639
X114.957Y-62.179
X114.957Y-64.719
X114.957Y-67.259
X114.957Y-69.799
X114.957Y-72.339
X114.957Y-74.879
X114.957Y-77.419
X114.957Y-79.959
X114.957Y-82.499
X114.957Y-85.039
X114.957Y-87.579
X114.957Y-90.119
X114.957Y-92.659
X116.929Y-105.042
X116.929Y-107.582
X116.929Y-110.122
X116.929Y-112.662
X116.929Y-115.202
X116.929Y-117.742
X116.929Y-120.282
X116.929Y-122.822
X116.929Y-125.362
X116.929Y-127.902
X116.929Y-130.442
X116.929Y-132.982
X118.894Y-59.639
X118.894Y-62.179
X118.894Y-64.719
X118.894Y-67.259
X118.894Y-69.799
X118.894Y-72.339
X118.894Y-74.879
X118.894Y-77.419
X118.894Y-79.959
X118.894Y-82.499
X118.894Y-85.039
X118.894Y-87.579
X118.894Y-90.119
X118.894Y-92.659
X120.612Y-104.915
X120.612Y-107.455
X120.612Y-109.995
X120.612Y-112.535
X120.612Y-115.075
X120.612Y-117.615
X120.612Y-120.155
X120.612Y-122.695
X120.612Y-125.235
X120.612Y-127.775
X120.612Y-130.315
X120.612Y-132.855
X120.612Y-135.395
X120.612Y-137.935
X121.089Y-54.648
X123.589Y-54.648
X123.934Y-141.872
X126.434Y-141.872
X129.68Y-142.507
X132.22Y-142.507
X134.134Y-59.639
X134.134Y-62.179
X134.134Y-64.719
X134.134Y-67.259
X134.134Y-69.799
X134.134Y-72.339
X134.134Y-74.879
X134.134Y-77.419
X134.134Y-79.959
X134.134Y-82.499
X134.134Y-85.039
X134.134Y-87.579
X134.134Y-90.119
X134.134Y-92.659
X134.76Y-142.507
X135.852Y-104.915
X135.852Y-107.455
X135.852Y-109.995
X135.852Y-112.535
X135.852Y-115.075
X135.852Y-117.615
X135.852Y-120.155
X135.852Y-122.695
X135.852Y-125.235
X135.852Y-127.775
X135.852Y-130.315
X135.852Y-132.855
X135.852Y-135.395
X135.852Y-137.935
X137.3Y-142.507
X139.84Y-142.507
T4
X52.87Y-60.465
X52.87Y-68.085
X53.2Y-71.158
X53.2Y-78.778
X55.385Y-97.981
X55.385Y-105.601
X74.206Y-138.951
X74.206Y-146.571
X103.34Y-129.553
X105.88Y-129.553
T5
X69.456Y-116.472
X129.591Y-146.355
X141.821Y-63.005
X141.821Y-65.545
X141.821Y-68.085
X141.821Y-70.625
X141.821Y-73.165
X141.821Y-75.705
X141.821Y-78.245
X141.821Y-80.785
X141.821Y-83.325
X141.821Y-85.865
X141.821Y-88.405
X141.821Y-90.945
X141.821Y-93.485
X141.821Y-96.025
X141.821Y-98.565
X141.821Y-101.105
X141.821Y-103.645
X141.821Y-106.185
X141.821Y-108.725
X141.821Y-111.265
X144.361Y-63.005
X144.361Y-65.545
X144.361Y-68.085
X144.361Y-70.625
X144.361Y-73.165
X144.361Y-75.705
X144.361Y-78.245
X144.361Y-80.785
X144.361Y-83.325
X144.361Y-85.865
X144.361Y-88.405
X144.361Y-90.945
X144.361Y-93.485
X144.361Y-96.025
X144.361Y-98.565
X144.361Y-101.105
X144.361Y-103.645
X144.361Y-106.185
X144.361Y-108.725
X144.361Y-111.265
T6
X142.71Y-124.473
X142.71Y-127.013
X142.71Y-129.553
X142.71Y-132.093
X142.71Y-134.633
X142.71Y-137.173
T7
X53.628Y-82.107
X53.628Y-88.607
X58.128Y-82.107
X58.128Y-88.607
T8
X87.846Y-132.22
X87.846Y-147.46
T9
X78.539Y-142.786
X83.539Y-142.786
T10
X55.0Y-55.0
X55.0Y-145.0
X145.0Y-55.0
X145.0Y-145.0
T5
G00X94.505Y-133.644
M15
G01X97.005Y-133.644
M16
G05
G00X94.755Y-139.844
M15
G01X96.755Y-139.844
M16
G05
G00X100.455Y-137.844
M15
G01X100.455Y-135.844
M16
G05
M30
