%TF.GenerationSoftware,KiCad,Pcbnew,9.0.7*%
%TF.CreationDate,2026-03-01T15:46:25+09:00*%
%TF.ProjectId,SYS19-10,53595331-392d-4313-902e-6b696361645f,5*%
%TF.SameCoordinates,Original*%
%TF.FileFunction,Soldermask,Bot*%
%TF.FilePolarity,Negative*%
%FSLAX46Y46*%
G04 Gerber Fmt 4.6, Leading zero omitted, Abs format (unit mm)*
G04 Created by KiCad (PCBNEW 9.0.7) date 2026-03-01 15:46:25*
%MOMM*%
%LPD*%
G01*
G04 APERTURE LIST*
G04 Aperture macros list*
%AMRoundRect*
0 Rectangle with rounded corners*
0 $1 Rounding radius*
0 $2 $3 $4 $5 $6 $7 $8 $9 X,Y pos of 4 corners*
0 Add a 4 corners polygon primitive as box body*
4,1,4,$2,$3,$4,$5,$6,$7,$8,$9,$2,$3,0*
0 Add four circle primitives for the rounded corners*
1,1,$1+$1,$2,$3*
1,1,$1+$1,$4,$5*
1,1,$1+$1,$6,$7*
1,1,$1+$1,$8,$9*
0 Add four rect primitives between the rounded corners*
20,1,$1+$1,$2,$3,$4,$5,0*
20,1,$1+$1,$4,$5,$6,$7,0*
20,1,$1+$1,$6,$7,$8,$9,0*
20,1,$1+$1,$8,$9,$2,$3,0*%
%AMFreePoly0*
4,1,23,0.550000,-0.750000,0.000000,-0.750000,0.000000,-0.745722,-0.065263,-0.745722,-0.191342,-0.711940,-0.304381,-0.646677,-0.396677,-0.554381,-0.461940,-0.441342,-0.495722,-0.315263,-0.495722,-0.250000,-0.500000,-0.250000,-0.500000,0.250000,-0.495722,0.250000,-0.495722,0.315263,-0.461940,0.441342,-0.396677,0.554381,-0.304381,0.646677,-0.191342,0.711940,-0.065263,0.745722,0.000000,0.745722,
0.000000,0.750000,0.550000,0.750000,0.550000,-0.750000,0.550000,-0.750000,$1*%
%AMFreePoly1*
4,1,23,0.000000,0.745722,0.065263,0.745722,0.191342,0.711940,0.304381,0.646677,0.396677,0.554381,0.461940,0.441342,0.495722,0.315263,0.495722,0.250000,0.500000,0.250000,0.500000,-0.250000,0.495722,-0.250000,0.495722,-0.315263,0.461940,-0.441342,0.396677,-0.554381,0.304381,-0.646677,0.191342,-0.711940,0.065263,-0.745722,0.000000,-0.745722,0.000000,-0.750000,-0.550000,-0.750000,
-0.550000,0.750000,0.000000,0.750000,0.000000,0.745722,0.000000,0.745722,$1*%
G04 Aperture macros list end*
%ADD10R,1.800000X1.800000*%
%ADD11O,1.800000X1.800000*%
%ADD12R,1.600000X1.600000*%
%ADD13O,1.600000X1.600000*%
%ADD14C,1.600000*%
%ADD15R,4.500000X2.000000*%
%ADD16O,4.000000X2.000000*%
%ADD17O,2.000000X4.000000*%
%ADD18C,1.400000*%
%ADD19O,1.400000X1.400000*%
%ADD20RoundRect,0.250000X0.950000X0.550000X-0.950000X0.550000X-0.950000X-0.550000X0.950000X-0.550000X0*%
%ADD21O,2.400000X1.600000*%
%ADD22C,3.200000*%
%ADD23C,2.600000*%
%ADD24C,2.000000*%
%ADD25RoundRect,0.250000X0.550000X0.550000X-0.550000X0.550000X-0.550000X-0.550000X0.550000X-0.550000X0*%
%ADD26R,1.700000X1.700000*%
%ADD27C,1.700000*%
%ADD28R,2.400000X1.600000*%
%ADD29R,2.000000X2.000000*%
%ADD30C,1.500000*%
%ADD31C,2.400000*%
%ADD32O,2.400000X2.400000*%
%ADD33C,1.800000*%
%ADD34RoundRect,0.250000X-0.620000X0.620000X-0.620000X-0.620000X0.620000X-0.620000X0.620000X0.620000X0*%
%ADD35C,1.740000*%
%ADD36FreePoly0,0.000000*%
%ADD37R,1.000000X1.500000*%
%ADD38FreePoly1,0.000000*%
%ADD39R,1.500000X1.000000*%
G04 APERTURE END LIST*
%TO.C,JP4*%
G36*
X92126600Y-72045000D02*
G01*
X90626600Y-72045000D01*
X90626600Y-71745000D01*
X92126600Y-71745000D01*
X92126600Y-72045000D01*
G37*
%TD*%
D10*
%TO.C,D2*%
X74206200Y-138951000D03*
D11*
X74206200Y-146571000D03*
%TD*%
D12*
%TO.C,U9*%
X102070000Y-120548400D03*
D13*
X102070000Y-118008400D03*
X102070000Y-115468400D03*
X102070000Y-112928400D03*
X102070000Y-110388400D03*
X102070000Y-107848400D03*
X102070000Y-105308400D03*
X102070000Y-102768400D03*
X102070000Y-100228400D03*
X102070000Y-97688400D03*
X94450000Y-97688400D03*
X94450000Y-100228400D03*
X94450000Y-102768400D03*
X94450000Y-105308400D03*
X94450000Y-107848400D03*
X94450000Y-110388400D03*
X94450000Y-112928400D03*
X94450000Y-115468400D03*
X94450000Y-118008400D03*
X94450000Y-120548400D03*
%TD*%
D14*
%TO.C,C7*%
X111047000Y-136919000D03*
X108547000Y-136919000D03*
%TD*%
D15*
%TO.C,J1*%
X95755000Y-133644000D03*
D16*
X95755000Y-139844000D03*
D17*
X100455000Y-136844000D03*
%TD*%
D18*
%TO.C,R6*%
X69126200Y-125895400D03*
D19*
X69126200Y-133515400D03*
%TD*%
D18*
%TO.C,R3*%
X81978600Y-136614200D03*
D19*
X74358600Y-136614200D03*
%TD*%
D20*
%TO.C,U7*%
X116929000Y-132982000D03*
D21*
X116929000Y-130442000D03*
X116929000Y-127902000D03*
X116929000Y-125362000D03*
X116929000Y-122822000D03*
X116929000Y-120282000D03*
X116929000Y-117742000D03*
X116929000Y-115202000D03*
X116929000Y-112662000D03*
X116929000Y-110122000D03*
X116929000Y-107582000D03*
X116929000Y-105042000D03*
X109309000Y-105042000D03*
X109309000Y-107582000D03*
X109309000Y-110122000D03*
X109309000Y-112662000D03*
X109309000Y-115202000D03*
X109309000Y-117742000D03*
X109309000Y-120282000D03*
X109309000Y-122822000D03*
X109309000Y-125362000D03*
X109309000Y-127902000D03*
X109309000Y-130442000D03*
X109309000Y-132982000D03*
%TD*%
D10*
%TO.C,D4*%
X53200400Y-78778400D03*
D11*
X53200400Y-71158400D03*
%TD*%
D18*
%TO.C,R12*%
X106261000Y-124193600D03*
X98641000Y-124193600D03*
%TD*%
D22*
%TO.C,MH2*%
X145000000Y-55000000D03*
%TD*%
D18*
%TO.C,R2*%
X58331200Y-105550000D03*
X58331200Y-97930000D03*
%TD*%
D12*
%TO.C,C2*%
X55602088Y-93967600D03*
D14*
X58102088Y-93967600D03*
%TD*%
D12*
%TO.C,U8*%
X81968600Y-133632400D03*
D13*
X81968600Y-131092400D03*
X81968600Y-128552400D03*
X81968600Y-126012400D03*
X74348600Y-126012400D03*
X74348600Y-128552400D03*
X74348600Y-131092400D03*
X74348600Y-133632400D03*
%TD*%
D23*
%TO.C,L1*%
X83538800Y-142786400D03*
X78538800Y-142786400D03*
%TD*%
D24*
%TO.C,TP2*%
X129590800Y-146354800D03*
%TD*%
D14*
%TO.C,C12*%
X105118000Y-54623000D03*
X102618000Y-54623000D03*
%TD*%
D18*
%TO.C,R10*%
X147155000Y-119520000D03*
D19*
X139535000Y-119520000D03*
%TD*%
D12*
%TO.C,C5*%
X65786200Y-141367549D03*
D14*
X65786200Y-144867549D03*
%TD*%
D18*
%TO.C,R9*%
X105905400Y-140398800D03*
X105905400Y-132778800D03*
%TD*%
D12*
%TO.C,U6*%
X135852000Y-137935000D03*
D13*
X135852000Y-135395000D03*
X135852000Y-132855000D03*
X135852000Y-130315000D03*
X135852000Y-127775000D03*
X135852000Y-125235000D03*
X135852000Y-122695000D03*
X135852000Y-120155000D03*
X135852000Y-117615000D03*
X135852000Y-115075000D03*
X135852000Y-112535000D03*
X135852000Y-109995000D03*
X135852000Y-107455000D03*
X135852000Y-104915000D03*
X120612000Y-104915000D03*
X120612000Y-107455000D03*
X120612000Y-109995000D03*
X120612000Y-112535000D03*
X120612000Y-115075000D03*
X120612000Y-117615000D03*
X120612000Y-120155000D03*
X120612000Y-122695000D03*
X120612000Y-125235000D03*
X120612000Y-127775000D03*
X120612000Y-130315000D03*
X120612000Y-132855000D03*
X120612000Y-135395000D03*
X120612000Y-137935000D03*
%TD*%
D18*
%TO.C,R7*%
X71818600Y-133515400D03*
D19*
X71818600Y-125895400D03*
%TD*%
D22*
%TO.C,MH3*%
X55000000Y-145000000D03*
%TD*%
D18*
%TO.C,R11*%
X140043000Y-146088400D03*
X132423000Y-146088400D03*
%TD*%
D14*
%TO.C,C15*%
X113436400Y-54610000D03*
X110936400Y-54610000D03*
%TD*%
D25*
%TO.C,U4*%
X134134000Y-92659300D03*
D14*
X134134000Y-90119300D03*
X134134000Y-87579300D03*
X134134000Y-85039300D03*
X134134000Y-82499300D03*
X134134000Y-79959300D03*
X134134000Y-77419300D03*
X134134000Y-74879300D03*
X134134000Y-72339300D03*
X134134000Y-69799300D03*
X134134000Y-67259300D03*
X134134000Y-64719300D03*
X134134000Y-62179300D03*
X134134000Y-59639300D03*
X118894000Y-59639300D03*
X118894000Y-62179300D03*
X118894000Y-64719300D03*
X118894000Y-67259300D03*
X118894000Y-69799300D03*
X118894000Y-72339300D03*
X118894000Y-74879300D03*
X118894000Y-77419300D03*
X118894000Y-79959300D03*
X118894000Y-82499300D03*
X118894000Y-85039300D03*
X118894000Y-87579300D03*
X118894000Y-90119300D03*
X118894000Y-92659300D03*
%TD*%
D12*
%TO.C,U10*%
X90386000Y-120548400D03*
D13*
X90386000Y-118008400D03*
X90386000Y-115468400D03*
X90386000Y-112928400D03*
X90386000Y-110388400D03*
X90386000Y-107848400D03*
X90386000Y-105308400D03*
X90386000Y-102768400D03*
X90386000Y-100228400D03*
X90386000Y-97688400D03*
X82766000Y-97688400D03*
X82766000Y-100228400D03*
X82766000Y-102768400D03*
X82766000Y-105308400D03*
X82766000Y-107848400D03*
X82766000Y-110388400D03*
X82766000Y-112928400D03*
X82766000Y-115468400D03*
X82766000Y-118008400D03*
X82766000Y-120548400D03*
%TD*%
D24*
%TO.C,SW1*%
X58128000Y-82107000D03*
X58128000Y-88607000D03*
X53628000Y-82107000D03*
X53628000Y-88607000D03*
%TD*%
D26*
%TO.C,J2*%
X141821000Y-111265000D03*
D27*
X144361000Y-111265000D03*
X141821000Y-108725000D03*
X144361000Y-108725000D03*
X141821000Y-106185000D03*
X144361000Y-106185000D03*
X141821000Y-103645000D03*
X144361000Y-103645000D03*
X141821000Y-101105000D03*
X144361000Y-101105000D03*
X141821000Y-98565000D03*
X144361000Y-98565000D03*
X141821000Y-96025000D03*
X144361000Y-96025000D03*
X141821000Y-93485000D03*
X144361000Y-93485000D03*
X141821000Y-90945000D03*
X144361000Y-90945000D03*
X141821000Y-88405000D03*
X144361000Y-88405000D03*
X141821000Y-85865000D03*
X144361000Y-85865000D03*
X141821000Y-83325000D03*
X144361000Y-83325000D03*
X141821000Y-80785000D03*
X144361000Y-80785000D03*
X141821000Y-78245000D03*
X144361000Y-78245000D03*
X141821000Y-75705000D03*
X144361000Y-75705000D03*
X141821000Y-73165000D03*
X144361000Y-73165000D03*
X141821000Y-70625000D03*
X144361000Y-70625000D03*
X141821000Y-68085000D03*
X144361000Y-68085000D03*
X141821000Y-65545000D03*
X144361000Y-65545000D03*
X141821000Y-63005000D03*
X144361000Y-63005000D03*
%TD*%
D14*
%TO.C,C6*%
X58128000Y-76360000D03*
X58128000Y-78860000D03*
%TD*%
D18*
%TO.C,R5*%
X81064200Y-73266600D03*
X81064200Y-80886600D03*
%TD*%
D14*
%TO.C,C13*%
X56426200Y-73576800D03*
X56426200Y-71076800D03*
%TD*%
D10*
%TO.C,D1*%
X55384800Y-105600800D03*
D11*
X55384800Y-97980800D03*
%TD*%
D28*
%TO.C,U5*%
X114957000Y-92659300D03*
D21*
X114957000Y-90119300D03*
X114957000Y-87579300D03*
X114957000Y-85039300D03*
X114957000Y-82499300D03*
X114957000Y-79959300D03*
X114957000Y-77419300D03*
X114957000Y-74879300D03*
X114957000Y-72339300D03*
X114957000Y-69799300D03*
X114957000Y-67259300D03*
X114957000Y-64719300D03*
X114957000Y-62179300D03*
X114957000Y-59639300D03*
X107337000Y-59639300D03*
X107337000Y-62179300D03*
X107337000Y-64719300D03*
X107337000Y-67259300D03*
X107337000Y-69799300D03*
X107337000Y-72339300D03*
X107337000Y-74879300D03*
X107337000Y-77419300D03*
X107337000Y-79959300D03*
X107337000Y-82499300D03*
X107337000Y-85039300D03*
X107337000Y-87579300D03*
X107337000Y-90119300D03*
X107337000Y-92659300D03*
%TD*%
D29*
%TO.C,TP1*%
X69456400Y-116472000D03*
%TD*%
D25*
%TO.C,U1*%
X77305000Y-103772000D03*
D14*
X77305000Y-101232000D03*
X77305000Y-98692000D03*
X77305000Y-96152000D03*
X77305000Y-93612000D03*
X77305000Y-91072000D03*
X77305000Y-88532000D03*
X77305000Y-85992000D03*
X77305000Y-83452000D03*
X77305000Y-80912000D03*
X77305000Y-78372000D03*
X77305000Y-75832000D03*
X77305000Y-73292000D03*
X77305000Y-70752000D03*
X77305000Y-68212000D03*
X77305000Y-65672000D03*
X77305000Y-63132000D03*
X77305000Y-60592000D03*
X77305000Y-58052000D03*
X77305000Y-55512000D03*
X62065000Y-55512000D03*
X62065000Y-58052000D03*
X62065000Y-60592000D03*
X62065000Y-63132000D03*
X62065000Y-65672000D03*
X62065000Y-68212000D03*
X62065000Y-70752000D03*
X62065000Y-73292000D03*
X62065000Y-75832000D03*
X62065000Y-78372000D03*
X62065000Y-80912000D03*
X62065000Y-83452000D03*
X62065000Y-85992000D03*
X62065000Y-88532000D03*
X62065000Y-91072000D03*
X62065000Y-93612000D03*
X62065000Y-96152000D03*
X62065000Y-98692000D03*
X62065000Y-101232000D03*
X62065000Y-103772000D03*
%TD*%
D12*
%TO.C,C14*%
X58698100Y-61608000D03*
D14*
X56198100Y-61608000D03*
%TD*%
%TO.C,C1*%
X85077400Y-129431400D03*
X85077400Y-126931400D03*
%TD*%
D25*
%TO.C,U3*%
X99408000Y-88674000D03*
D14*
X99408000Y-86134000D03*
X99408000Y-83594000D03*
X99408000Y-81054000D03*
X99408000Y-78514000D03*
X99408000Y-75974000D03*
X99408000Y-73434000D03*
X99408000Y-70894000D03*
X99408000Y-68354000D03*
X99408000Y-65814000D03*
X99408000Y-63274000D03*
X99408000Y-60734000D03*
X99408000Y-58194000D03*
X99408000Y-55654000D03*
X84168000Y-55654000D03*
X84168000Y-58194000D03*
X84168000Y-60734000D03*
X84168000Y-63274000D03*
X84168000Y-65814000D03*
X84168000Y-68354000D03*
X84168000Y-70894000D03*
X84168000Y-73434000D03*
X84168000Y-75974000D03*
X84168000Y-78514000D03*
X84168000Y-81054000D03*
X84168000Y-83594000D03*
X84168000Y-86134000D03*
X84168000Y-88674000D03*
%TD*%
D30*
%TO.C,X1*%
X54293600Y-134633000D03*
X59173600Y-134633000D03*
%TD*%
D12*
%TO.C,U2*%
X62563000Y-128776000D03*
D13*
X62563000Y-126236000D03*
X62563000Y-123696000D03*
X62563000Y-121156000D03*
X62563000Y-118616000D03*
X62563000Y-116076000D03*
X62563000Y-113536000D03*
X62563000Y-110996000D03*
X54943000Y-110996000D03*
X54943000Y-113536000D03*
X54943000Y-116076000D03*
X54943000Y-118616000D03*
X54943000Y-121156000D03*
X54943000Y-123696000D03*
X54943000Y-126236000D03*
X54943000Y-128776000D03*
%TD*%
D12*
%TO.C,RN1*%
X129679800Y-142507000D03*
D13*
X132219800Y-142507000D03*
X134759800Y-142507000D03*
X137299800Y-142507000D03*
X139839800Y-142507000D03*
%TD*%
D22*
%TO.C,MH4*%
X145000000Y-145000000D03*
%TD*%
D31*
%TO.C,R1*%
X87846000Y-132220000D03*
D32*
X87846000Y-147460000D03*
%TD*%
D18*
%TO.C,R13*%
X52133600Y-113779600D03*
X52133600Y-106159600D03*
%TD*%
%TO.C,R14*%
X52489200Y-99403200D03*
X52489200Y-91783200D03*
%TD*%
D14*
%TO.C,C9*%
X121089200Y-54648400D03*
X123589200Y-54648400D03*
%TD*%
%TO.C,C17*%
X56598600Y-108140800D03*
X59098600Y-108140800D03*
%TD*%
D10*
%TO.C,D5*%
X52870200Y-68085000D03*
D11*
X52870200Y-60465000D03*
%TD*%
D10*
%TO.C,D3*%
X103340000Y-129553000D03*
D33*
X105880000Y-129553000D03*
%TD*%
D18*
%TO.C,R4*%
X52133600Y-123685600D03*
X52133600Y-116065600D03*
%TD*%
%TO.C,R8*%
X59067800Y-74206400D03*
X59067800Y-66586400D03*
%TD*%
D14*
%TO.C,C16*%
X70652000Y-52679600D03*
X73152000Y-52679600D03*
%TD*%
D34*
%TO.C,J3*%
X142710000Y-124473000D03*
D35*
X142710000Y-127013000D03*
X142710000Y-129553000D03*
D34*
X142710000Y-132093000D03*
D35*
X142710000Y-134633000D03*
X142710000Y-137173000D03*
%TD*%
D25*
%TO.C,C4*%
X94629451Y-127648000D03*
D14*
X91129451Y-127648000D03*
%TD*%
%TO.C,C3*%
X52336800Y-127668000D03*
X52336800Y-130168000D03*
%TD*%
%TO.C,C8*%
X100754600Y-126911400D03*
X98254600Y-126911400D03*
%TD*%
D22*
%TO.C,MH1*%
X55000000Y-55000000D03*
%TD*%
D14*
%TO.C,C11*%
X126434000Y-141872000D03*
X123934000Y-141872000D03*
%TD*%
%TO.C,C10*%
X64160400Y-133970400D03*
X64160400Y-131470400D03*
%TD*%
D36*
%TO.C,JP1*%
X127791000Y-52718000D03*
D37*
X129091000Y-52718000D03*
D38*
X130391000Y-52718000D03*
%TD*%
D39*
%TO.C,JP4*%
X91376600Y-72545000D03*
X91376600Y-71245000D03*
%TD*%
M02*
